<svg width="40" height="47" viewBox="0 0 40 47" fill="none" xmlns="http://www.w3.org/2000/svg">
<path d="M36.1521 25.0674C37.0904 23.9327 37.0679 22.1091 36.102 20.9978L23.7384 6.77404C22.7724 5.66281 21.2263 5.68186 20.288 6.81655C19.3498 7.95124 19.3723 9.77494 20.3382 10.8862L30.9555 23.1008L20.6499 35.5733C19.7117 36.708 19.7341 38.5316 20.7001 39.6429C21.666 40.7541 23.2121 40.7351 24.1504 39.6004L36.1599 25.0763L36.1521 25.0674ZM9.51876 39.7716L21.5283 25.2476C22.4665 24.1129 22.444 22.2892 21.4781 21.178L9.11447 6.9542C8.14856 5.84297 6.60238 5.86202 5.66414 6.99671C4.7259 8.1314 4.74837 9.95509 5.71428 11.0663L16.3316 23.281L6.02603 35.7534C5.08779 36.8881 5.11025 38.7118 6.07616 39.823C7.04208 40.9343 8.58825 40.9152 9.52649 39.7805L9.51876 39.7716Z" fill="#A0CF37"/>
</svg>
