<svg width="39" height="46" viewBox="0 0 39 46" fill="none" xmlns="http://www.w3.org/2000/svg">
<path d="M3.15356 20.9695C2.20142 22.0926 2.20142 23.9164 3.15356 25.0394L15.3411 39.4144C16.2932 40.5375 17.8395 40.5375 18.7916 39.4144C19.7438 38.2914 19.7438 36.4676 18.7916 35.3445L8.32563 23L18.784 10.6555C19.7362 9.53242 19.7362 7.70859 18.784 6.58554C17.8319 5.46249 16.2856 5.46249 15.3334 6.58554L3.14595 20.9605L3.15356 20.9695ZM29.9661 6.59452L17.7786 20.9695C16.8264 22.0926 16.8264 23.9164 17.7786 25.0394L29.9661 39.4144C30.9182 40.5375 32.4645 40.5375 33.4167 39.4144C34.3688 38.2914 34.3688 36.4676 33.4167 35.3445L22.9506 23L33.409 10.6555C34.3612 9.53242 34.3612 7.70859 33.409 6.58554C32.4569 5.46249 30.9106 5.46249 29.9584 6.58554L29.9661 6.59452Z" fill="#A0CF37"/>
</svg>
