<svg width="56" height="54" viewBox="0 0 56 54" fill="none" xmlns="http://www.w3.org/2000/svg">
<path d="M56 27C56 19.8392 53.05 12.9716 47.799 7.90812C42.548 2.84464 35.4261 0 28 0C20.5739 0 13.452 2.84464 8.20101 7.90812C2.94999 12.9716 0 19.8392 0 27C0 34.1608 2.94999 41.0284 8.20101 46.0919C13.452 51.1554 20.5739 54 28 54C35.4261 54 42.548 51.1554 47.799 46.0919C53.05 41.0284 56 34.1608 56 27ZM25.2656 13.3945C26.2938 12.4031 27.9562 12.4031 28.9734 13.3945C29.9906 14.3859 30.0016 15.9891 28.9734 16.9699L21.2078 24.4582L41.125 24.4688C42.5797 24.4688 43.75 25.5973 43.75 27C43.75 28.4027 42.5797 29.5312 41.125 29.5312H21.2078L28.9734 37.0195C30.0016 38.0109 30.0016 39.6141 28.9734 40.5949C27.9453 41.5758 26.2828 41.5863 25.2656 40.5949L13.0156 28.793C11.9875 27.8016 11.9875 26.1984 13.0156 25.2176L25.2656 13.3945Z" fill="#00B5CC"/>
</svg>
